<?xml version="1.0" standalone="no"?>
<!DOCTYPE svg PUBLIC "-//W3C//DTD SVG 20010904//EN"
 "http://www.w3.org/TR/2001/REC-SVG-20010904/DTD/svg10.dtd">
<svg version="1.0" xmlns="http://www.w3.org/2000/svg"
 width="1280.000000pt" height="1279.000000pt" viewBox="0 0 1280.000000 1279.000000"
 preserveAspectRatio="xMidYMid meet">
<metadata>
Created by potrace 1.15, written by Peter Selinger 2001-2017
</metadata>
<g transform="translate(0.000000,1279.000000) scale(0.100000,-0.100000)"
 stroke="none">
<path d="M5950 12781 c-90 -8 -94 -17 -96 -231 -1 -94 -7 -184 -13 -209 -25
-88 -83 -150 -189 -199 -51 -24 -69 -27 -167 -27 -95 0 -116 3 -157 23 -95 47
-163 137 -233 307 -21 50 -48 111 -61 138 l-24 47 -53 0 c-51 0 -155 -25 -209
-50 -35 -16 -45 -73 -29 -168 39 -242 40 -254 31 -305 -19 -99 -79 -170 -193
-227 -162 -81 -311 -59 -432 64 -27 29 -89 108 -136 177 -48 69 -94 131 -103
138 -14 12 -26 10 -84 -13 -37 -15 -94 -42 -127 -59 l-60 -32 3 -49 c1 -27 25
-117 53 -200 81 -238 72 -316 -52 -430 -32 -30 -89 -70 -127 -88 -58 -28 -77
-33 -142 -33 -62 0 -84 5 -125 27 -80 42 -140 89 -270 212 l-123 115 -57 -34
c-32 -19 -86 -58 -121 -86 l-63 -51 26 -57 c14 -31 33 -75 44 -99 10 -23 37
-69 60 -103 62 -92 81 -142 81 -215 -1 -85 -34 -157 -108 -235 -83 -86 -149
-121 -241 -127 -115 -7 -189 25 -429 190 l-103 71 -65 -57 c-90 -78 -140 -149
-131 -183 9 -38 52 -96 151 -203 90 -98 118 -146 130 -218 14 -91 -51 -239
-146 -331 -85 -82 -195 -109 -320 -77 -35 9 -134 50 -219 91 l-156 74 -32 -32
c-30 -30 -143 -202 -143 -217 0 -16 96 -113 169 -172 185 -149 216 -193 215
-308 0 -67 -5 -85 -41 -162 -50 -105 -114 -177 -186 -209 -78 -34 -167 -31
-355 14 -84 21 -170 37 -191 37 -38 0 -38 -1 -75 -78 -20 -43 -45 -103 -56
-133 l-20 -54 41 -37 c23 -21 64 -48 93 -62 28 -13 85 -40 127 -60 141 -66
209 -161 209 -291 0 -38 -5 -90 -11 -114 -23 -103 -97 -214 -163 -248 -92 -48
-274 -65 -415 -39 -146 27 -171 8 -191 -145 -18 -147 -19 -144 49 -178 32 -17
104 -44 159 -60 152 -45 197 -68 247 -123 62 -69 79 -131 72 -257 -7 -130 -27
-183 -96 -252 -85 -84 -188 -116 -446 -136 l-100 -8 -13 -60 c-15 -69 -10
-228 7 -249 13 -15 170 -49 306 -66 114 -14 175 -41 225 -97 62 -71 84 -138
84 -263 1 -130 -20 -184 -98 -259 -65 -61 -126 -92 -247 -126 -207 -58 -216
-62 -222 -99 -7 -47 8 -162 30 -222 l19 -49 99 -12 c74 -8 131 -8 216 0 104
10 121 9 162 -7 67 -25 141 -96 177 -169 36 -74 64 -198 55 -247 -24 -130
-102 -207 -336 -334 -58 -32 -118 -67 -133 -79 l-27 -22 34 -100 c19 -55 43
-117 53 -139 l19 -38 60 6 c33 3 107 18 165 32 144 36 276 38 338 6 95 -50
177 -168 202 -288 29 -138 -40 -266 -218 -406 -37 -29 -93 -74 -125 -101 l-57
-49 47 -90 c26 -50 62 -106 79 -126 l31 -37 96 23 c58 15 140 45 209 78 104
51 117 55 169 51 150 -13 324 -181 344 -333 15 -107 -43 -224 -206 -420 l-98
-118 32 -45 c18 -25 61 -76 97 -113 l65 -68 93 39 c50 21 117 58 148 82 30 24
71 56 90 71 105 81 271 47 401 -81 67 -65 104 -140 110 -225 9 -103 -15 -166
-151 -401 -25 -44 -46 -87 -46 -96 0 -33 183 -189 222 -189 28 0 85 46 196
159 121 122 162 149 245 162 144 23 350 -90 407 -223 19 -44 22 -65 18 -137
-4 -71 -15 -115 -61 -252 -32 -91 -57 -173 -57 -181 0 -17 136 -101 210 -129
l53 -20 39 38 c22 21 71 85 111 143 132 194 181 232 301 233 136 0 281 -65
346 -154 50 -69 64 -136 56 -264 -3 -60 -15 -144 -26 -185 -26 -100 -26 -131
4 -159 31 -29 123 -61 198 -68 55 -6 59 -4 89 28 35 38 68 99 109 205 56 146
99 197 200 235 129 49 337 -3 429 -108 26 -29 49 -70 63 -112 20 -59 22 -84
20 -238 -2 -228 -7 -221 172 -235 107 -8 131 -7 143 4 19 20 60 145 85 261 36
167 102 246 239 288 92 28 212 24 282 -10 61 -30 127 -97 166 -171 35 -66 71
-192 71 -254 1 -66 31 -139 60 -147 74 -20 247 0 276 32 15 17 19 48 23 213 6
189 7 194 36 252 58 113 186 179 350 179 81 0 95 -3 143 -30 65 -35 153 -128
189 -198 14 -29 45 -104 68 -167 l42 -115 34 3 c34 3 167 34 225 53 24 7 33
17 38 41 11 55 6 129 -15 242 -24 124 -22 192 9 252 66 128 273 230 415 203
116 -21 196 -92 323 -285 l92 -142 39 8 c55 11 89 26 166 73 l69 42 -6 56 c-3
31 -26 112 -51 180 -56 149 -66 227 -40 296 37 96 186 218 303 248 125 32 211
-8 413 -197 l140 -130 52 27 c29 14 80 49 115 76 48 39 62 55 62 77 0 15 -39
105 -87 201 -88 173 -88 175 -88 250 0 97 25 148 114 235 84 80 137 108 222
114 117 8 223 -37 430 -182 l92 -66 51 47 c28 26 73 72 99 102 38 44 47 61 42
80 -9 35 -53 94 -146 196 -105 116 -133 172 -127 264 7 130 116 294 232 350
108 53 205 38 433 -66 79 -35 150 -62 158 -59 21 8 97 109 135 180 l34 63 -32
40 c-17 22 -56 59 -87 82 -30 22 -79 59 -109 82 -63 46 -104 96 -122 148 -41
115 16 308 124 415 97 97 210 108 447 43 193 -52 190 -52 213 -14 46 73 82
157 88 199 6 43 5 46 -35 80 -22 19 -97 65 -166 103 -150 82 -186 111 -216
171 -47 99 -18 301 58 401 43 57 53 65 118 101 l50 27 229 0 c193 0 230 2 236
15 18 35 60 198 60 232 0 28 -7 42 -30 61 -37 32 -161 79 -262 101 -128 28
-193 91 -225 220 -34 140 19 330 114 402 62 47 138 72 276 90 67 9 149 21 182
27 l60 12 13 55 c16 69 10 202 -11 234 -20 30 -67 41 -243 61 -195 21 -258 56
-318 172 -51 101 -57 260 -13 356 30 66 71 107 158 157 85 50 132 67 233 85
108 19 130 37 133 106 2 32 -7 91 -20 144 l-23 90 -65 11 c-83 15 -188 16
-268 4 -50 -9 -74 -8 -115 4 -133 39 -237 204 -236 374 2 164 79 252 343 387
l127 66 0 39 c0 52 -33 156 -67 207 -42 66 -76 66 -297 4 -60 -17 -133 -31
-161 -31 -107 0 -213 86 -282 228 -31 65 -36 86 -37 146 0 59 5 81 30 131 32
66 155 200 277 304 l75 64 -24 55 c-23 52 -78 147 -108 185 -14 18 -19 17
-128 -13 -76 -21 -137 -46 -188 -76 -72 -43 -98 -50 -170 -44 -100 6 -246 125
-302 246 -27 57 -32 80 -32 136 2 110 50 193 232 395 57 63 72 87 67 102 -16
52 -162 221 -190 221 -24 0 -112 -53 -223 -136 -170 -126 -244 -139 -383 -68
-64 32 -158 124 -188 182 -69 136 -43 264 109 526 l63 110 -25 20 c-14 12 -50
42 -79 67 -57 48 -129 99 -141 99 -4 0 -69 -59 -145 -130 -148 -140 -193 -172
-267 -191 -92 -23 -226 25 -327 118 -127 118 -135 242 -34 533 18 52 35 113
39 135 7 40 6 40 -51 77 -32 20 -87 50 -122 67 l-64 30 -27 -22 c-45 -38 -113
-125 -163 -210 -27 -45 -61 -95 -75 -110 -83 -89 -246 -100 -397 -28 -84 40
-138 91 -174 163 -27 53 -31 72 -31 142 0 45 9 133 20 196 23 132 25 203 8
218 -20 16 -222 82 -251 82 -21 0 -31 -9 -47 -41 -12 -22 -36 -64 -55 -93 -19
-29 -45 -89 -59 -132 -31 -96 -54 -133 -98 -168 -137 -104 -415 -62 -523 79
-59 79 -88 206 -86 389 1 146 -6 168 -64 192 -35 14 -198 20 -230 8 -9 -4 -21
-18 -27 -33 -39 -99 -60 -174 -73 -263 -19 -122 -44 -172 -110 -216 -69 -46
-156 -65 -267 -60 -118 6 -181 31 -243 100 -52 58 -74 113 -126 313 -21 83
-41 160 -45 173 -6 21 -11 22 -88 20 -44 -1 -110 -4 -146 -7z m1350 -912 c542
-137 938 -265 1380 -447 369 -151 612 -275 879 -449 591 -384 1132 -1011 1596
-1848 122 -220 342 -672 332 -682 -2 -2 -83 108 -179 245 -443 623 -590 795
-799 932 -292 192 -507 169 -791 -82 l-67 -60 -428 305 c-745 529 -832 592
-833 598 0 4 24 46 54 93 69 110 101 200 100 286 -1 177 -181 389 -522 614
-220 145 -404 243 -967 518 -106 52 -115 58 -75 52 25 -3 169 -37 320 -75z
m-2025 -208 c-6 -4 -66 -33 -135 -64 -435 -194 -764 -361 -947 -479 -154 -100
-314 -262 -370 -375 -95 -190 -81 -347 53 -570 l61 -102 -543 -531 -544 -531
-68 59 c-140 124 -231 166 -349 161 -69 -4 -90 -10 -173 -50 -262 -127 -523
-401 -1004 -1051 -93 -126 -169 -228 -171 -228 -4 0 71 180 140 335 120 272
405 814 570 1085 322 530 683 965 1029 1242 452 362 1055 674 1742 903 193 64
578 174 714 204 2 1 0 -3 -5 -8z m1735 -625 c161 -28 698 -162 825 -206 140
-48 192 -79 267 -158 107 -112 150 -221 150 -377 0 -188 -50 -295 -258 -550
-208 -256 -278 -415 -278 -630 0 -132 18 -207 77 -320 51 -97 179 -230 277
-288 225 -131 515 -125 731 15 90 57 161 136 275 300 124 179 316 421 374 471
108 92 328 97 509 11 178 -84 377 -353 611 -829 127 -258 181 -386 260 -625
149 -445 223 -886 237 -1405 16 -590 -97 -1181 -348 -1815 -99 -250 -300 -604
-444 -780 -128 -156 -313 -313 -456 -385 -107 -54 -170 -69 -299 -70 -106 0
-119 2 -172 28 -93 45 -187 155 -292 341 -106 185 -168 264 -278 351 -101 79
-198 129 -308 156 -247 62 -543 -34 -708 -230 -56 -66 -126 -199 -148 -281
-23 -85 -23 -242 -1 -330 25 -96 86 -212 184 -351 223 -314 297 -464 310 -629
12 -152 -36 -271 -156 -390 -121 -121 -242 -172 -551 -234 -750 -151 -1449
-139 -2145 35 -253 64 -704 228 -917 335 -115 57 -200 118 -272 194 -72 77
-108 139 -131 227 -31 118 -16 214 57 358 68 136 109 187 240 302 253 221 318
295 393 448 61 123 78 204 73 335 -8 175 -78 327 -210 457 -155 153 -303 216
-508 216 -122 0 -198 -17 -297 -67 -108 -54 -180 -113 -397 -325 -194 -188
-297 -271 -382 -307 -149 -63 -319 -58 -444 14 -189 109 -298 298 -474 825
-182 546 -256 985 -256 1511 0 613 118 1186 376 1823 124 308 194 433 300 536
106 104 216 147 375 147 118 0 199 -22 288 -80 83 -54 137 -106 298 -286 165
-185 264 -270 386 -328 218 -104 435 -110 622 -17 295 147 451 457 391 773
-35 183 -113 304 -361 558 -197 202 -234 248 -289 358 -54 107 -69 179 -64
292 6 104 34 182 96 267 49 65 157 149 257 197 84 41 470 188 615 235 307 98
677 167 1040 195 25 2 227 2 450 1 322 -2 424 -6 500 -19z m1564 -1575 c76
-37 147 -110 184 -189 23 -48 27 -71 27 -142 0 -71 -4 -94 -27 -142 -35 -76
-95 -138 -170 -179 -59 -32 -69 -34 -158 -34 -85 0 -102 3 -155 29 -86 42
-176 135 -204 211 -31 82 -26 187 13 263 98 192 311 271 490 183z m-4351 -309
c77 -38 148 -111 185 -190 23 -49 27 -70 27 -152 0 -85 -3 -101 -28 -149 -114
-216 -391 -276 -561 -120 -152 139 -179 345 -65 504 38 52 117 110 180 131 74
24 185 13 262 -24z m7346 -2786 c113 -59 58 -226 -75 -226 -51 0 -104 53 -104
104 0 100 95 165 179 122z m-10374 -1291 c127 -282 359 -743 433 -859 222
-351 467 -527 696 -501 111 13 211 54 341 139 l70 46 119 -122 c66 -68 310
-317 543 -554 233 -237 423 -436 423 -441 0 -5 -21 -29 -46 -53 -25 -25 -64
-71 -86 -103 -102 -149 -117 -251 -60 -392 113 -275 410 -565 1079 -1055 138
-102 251 -186 249 -187 -3 -3 -355 149 -525 227 -470 214 -1075 565 -1451 843
-218 161 -446 363 -599 530 -383 420 -736 1028 -989 1707 -108 288 -242 732
-286 945 -9 44 2 22 89 -170z m2946 -717 c78 -39 145 -107 182 -186 28 -60 32
-77 32 -157 0 -82 -3 -97 -33 -157 -40 -82 -111 -149 -190 -178 -49 -19 -71
-21 -152 -17 -165 9 -242 53 -304 177 -66 133 -71 244 -16 356 37 76 110 145
183 174 78 30 222 25 298 -12z m7222 -285 c-402 -635 -848 -1201 -1284 -1629
-485 -476 -926 -751 -1561 -975 -454 -160 -1088 -291 -1662 -344 -258 -24
-264 -20 -56 36 577 155 901 259 1073 345 186 94 340 231 404 361 38 77 38 77
38 202 0 133 -1 138 -81 343 -10 26 -16 49 -14 51 22 20 1241 857 1247 857 5
0 29 -28 53 -61 60 -83 153 -166 220 -198 177 -83 479 34 849 329 154 123 312
265 571 513 129 124 236 226 237 226 2 1 -14 -25 -34 -56z m-2911 -186 c194
-88 252 -324 124 -505 -42 -60 -129 -116 -205 -132 -211 -45 -393 105 -394
325 0 247 254 414 475 312z"/>
</g>
</svg>
