<?xml version="1.0" standalone="no"?>
<!DOCTYPE svg PUBLIC "-//W3C//DTD SVG 20010904//EN"
 "http://www.w3.org/TR/2001/REC-SVG-20010904/DTD/svg10.dtd">
<svg version="1.0" xmlns="http://www.w3.org/2000/svg"
 width="1280.000000pt" height="790.000000pt" viewBox="0 0 1280.000000 790.000000"
 preserveAspectRatio="xMidYMid meet">
<metadata>
Created by potrace 1.15, written by Peter Selinger 2001-2017
</metadata>
<g transform="translate(0.000000,790.000000) scale(0.100000,-0.100000)"
fill="#000000" stroke="none">
<path d="M4490 7890 c-14 -4 -153 -42 -310 -84 -255 -69 -288 -81 -318 -109
-18 -17 -37 -48 -42 -68 -11 -40 -13 -31 139 -598 l82 -305 -1974 -1975
c-1323 -1324 -1984 -1992 -2002 -2024 -78 -137 -84 -292 -16 -426 34 -67 117
-148 184 -181 43 -20 769 -219 2307 -631 1235 -330 2382 -637 2550 -682 l304
-82 12 -86 c40 -305 239 -539 524 -615 89 -24 272 -25 360 -1 409 110 644 533
514 927 -16 47 -23 84 -18 89 43 39 5097 4032 5105 4034 6 1 19 -26 29 -61 25
-91 70 -132 145 -132 35 0 622 153 656 170 30 16 68 70 75 104 6 35 7 32 -401
1556 -170 637 -169 634 -189 662 -25 35 -68 58 -113 58 -56 0 -641 -157 -676
-182 -55 -40 -70 -117 -41 -216 l7 -24 -3241 4 c-1782 1 -3243 5 -3246 8 -3 3
-52 183 -111 400 -58 217 -113 406 -123 419 -37 50 -108 72 -172 51z m6919
-1827 c0 -7 -5033 -4164 -5102 -4215 l-24 -17 -71 267 c-39 147 -128 479 -197
737 -70 259 -194 722 -276 1030 -83 308 -220 821 -306 1140 -85 319 -183 685
-217 813 l-63 232 306 1 c168 1 1406 5 2751 8 1345 4 2615 8 2823 9 207 1 377
-1 376 -5z m-6966 -831 c139 -524 287 -1078 617 -2307 310 -1157 348 -1300
347 -1302 -1 -1 -403 106 -892 237 -490 131 -1416 378 -2060 550 -643 172
-1172 315 -1175 317 -4 4 3011 3023 3020 3023 3 0 67 -233 143 -518z m1732
-4283 c24 -6 63 -27 86 -47 159 -137 63 -401 -147 -402 -106 0 -211 87 -228
189 -17 108 50 220 153 257 45 16 80 17 136 3z"/>
</g>
</svg>
