<?xml version="1.0" standalone="no"?>
<!DOCTYPE svg PUBLIC "-//W3C//DTD SVG 20010904//EN"
 "http://www.w3.org/TR/2001/REC-SVG-20010904/DTD/svg10.dtd">
<svg version="1.0" xmlns="http://www.w3.org/2000/svg"
 width="1280.000000pt" height="733.000000pt" viewBox="0 0 1280.000000 733.000000"
 preserveAspectRatio="xMidYMid meet">
<metadata>
Created by potrace 1.15, written by Peter Selinger 2001-2017
</metadata>
<g transform="translate(0.000000,733.000000) scale(0.100000,-0.100000)"
fill="#000000" stroke="none">
<path d="M3166 7320 c-63 -20 -81 -62 -51 -119 16 -32 60 -52 150 -71 33 -7
116 -30 185 -53 115 -37 133 -40 230 -40 58 1 134 6 169 12 36 6 67 9 69 6 4
-4 71 -228 252 -840 33 -110 104 -352 159 -539 56 -186 98 -342 95 -347 -2 -4
-21 -11 -40 -15 -20 -4 -38 -12 -40 -18 -2 -6 4 -36 14 -66 17 -49 22 -55 43
-51 62 10 60 13 92 -101 l29 -107 -258 -277 c-143 -153 -279 -300 -303 -326
-37 -42 -48 -48 -70 -43 -14 4 -32 16 -40 28 -28 41 -64 67 -104 78 -23 6 -50
23 -65 41 -28 32 -77 58 -113 58 -11 0 -30 11 -41 25 -25 32 -63 52 -108 56
-20 2 -54 18 -78 36 -39 29 -83 41 -125 34 -4 -1 -24 11 -43 26 -26 19 -50 28
-92 31 -32 2 -80 15 -109 29 -40 19 -61 23 -90 18 -28 -4 -51 0 -87 15 -39 18
-57 20 -95 14 -25 -4 -50 -6 -56 -4 -79 25 -108 29 -143 17 -30 -10 -44 -10
-79 3 -36 12 -48 12 -85 1 -24 -7 -53 -13 -65 -12 -13 0 -47 2 -75 3 -31 1
-64 -4 -78 -12 -15 -9 -46 -13 -81 -11 -42 2 -67 -3 -97 -18 -27 -14 -60 -21
-95 -21 -40 0 -63 -6 -89 -24 -23 -15 -54 -25 -91 -28 -40 -3 -65 -12 -91 -31
-19 -15 -47 -27 -63 -27 -38 -1 -109 -34 -125 -59 -8 -13 -23 -21 -41 -21 -40
0 -95 -28 -119 -60 -14 -19 -33 -30 -61 -34 -31 -5 -52 -18 -84 -51 -23 -25
-46 -45 -50 -45 -25 0 -96 -47 -114 -76 -12 -20 -37 -41 -57 -50 -46 -19 -77
-47 -92 -84 -7 -16 -25 -34 -42 -41 -36 -15 -73 -52 -89 -90 -6 -15 -29 -39
-51 -54 -27 -18 -47 -43 -65 -81 -13 -30 -28 -54 -33 -54 -20 0 -70 -64 -80
-102 -7 -24 -24 -51 -42 -66 -32 -28 -58 -77 -58 -113 0 -11 -11 -30 -25 -41
-33 -26 -54 -67 -57 -113 -1 -25 -12 -49 -30 -69 -25 -28 -52 -111 -42 -128 3
-4 -7 -24 -22 -44 -20 -26 -29 -50 -32 -92 -2 -32 -15 -80 -29 -110 -20 -40
-24 -61 -19 -91 4 -28 0 -52 -15 -86 -17 -38 -19 -57 -13 -94 4 -25 6 -50 4
-56 -25 -80 -29 -109 -17 -143 10 -29 10 -44 0 -72 -16 -47 -16 -74 1 -115 12
-28 13 -45 4 -89 -10 -47 -9 -58 9 -94 15 -31 19 -54 15 -95 -3 -41 1 -63 18
-96 12 -24 21 -57 20 -74 -3 -59 0 -74 24 -109 15 -23 25 -54 28 -91 3 -40 12
-65 31 -91 15 -19 27 -47 27 -63 1 -38 34 -109 59 -125 13 -8 21 -23 21 -41 0
-39 27 -92 60 -120 17 -15 30 -38 34 -63 6 -28 21 -51 52 -81 24 -24 44 -46
44 -50 0 -25 47 -96 76 -114 20 -12 41 -37 50 -57 19 -46 47 -77 84 -92 16 -7
34 -25 41 -42 15 -36 52 -73 90 -89 15 -6 39 -29 54 -51 18 -27 43 -47 81 -65
30 -13 54 -28 54 -32 0 -19 66 -72 102 -82 24 -6 51 -23 66 -41 28 -32 77 -58
113 -58 11 0 30 -11 41 -25 26 -33 67 -54 113 -57 25 -1 49 -12 69 -30 28 -25
111 -52 128 -42 4 3 24 -7 44 -22 26 -20 50 -29 92 -32 32 -2 80 -15 110 -29
40 -19 61 -24 90 -19 26 4 52 -1 89 -16 46 -19 59 -20 100 -11 27 7 52 8 58 3
24 -20 98 -29 134 -17 28 10 44 10 71 0 48 -16 86 -16 119 2 24 12 39 12 82 3
46 -9 60 -8 94 7 28 13 58 18 102 16 50 -2 69 1 98 19 27 17 46 21 75 17 38
-5 110 19 124 42 4 6 27 11 52 11 50 0 102 18 123 43 7 10 28 17 46 17 43 0
94 22 124 54 14 14 35 26 48 26 38 0 87 25 115 59 15 17 35 31 44 31 32 0 99
39 119 70 11 16 26 30 33 30 29 0 93 43 115 75 12 19 38 41 58 49 37 15 99 80
99 103 0 7 6 13 13 13 29 0 94 59 110 99 9 23 21 41 27 41 21 0 80 64 91 99 7
23 23 46 45 60 31 21 74 91 74 120 0 7 14 24 30 38 37 30 60 73 60 108 0 14 6
25 13 25 86 2 1089 103 1137 115 134 34 287 125 378 225 53 58 109 155 129
220 9 30 20 58 23 63 4 4 47 15 96 24 66 12 157 17 349 18 287 2 310 6 340 65
19 37 19 53 0 90 -30 58 -67 67 -305 73 -247 8 -467 36 -487 64 -7 9 -14 23
-14 30 -1 7 -2 16 -3 21 -2 11 -36 85 -47 102 -5 8 -14 26 -21 40 -7 14 -18
33 -26 42 -12 15 -12 20 4 41 11 12 510 626 1111 1363 l1092 1339 136 104 c75
57 140 99 145 95 4 -5 23 -56 41 -114 18 -58 38 -110 46 -116 7 -6 49 -19 93
-28 153 -34 139 -23 205 -146 33 -61 64 -109 70 -106 7 2 43 -78 88 -191 74
-190 76 -196 59 -219 -9 -13 -26 -24 -36 -24 -34 0 -100 -39 -121 -70 -11 -16
-26 -30 -33 -30 -30 0 -94 -43 -118 -79 -14 -22 -36 -42 -49 -45 -34 -9 -80
-51 -95 -86 -7 -16 -18 -30 -24 -30 -27 0 -85 -52 -106 -95 -12 -25 -26 -45
-31 -45 -20 0 -80 -65 -90 -99 -7 -23 -23 -46 -45 -60 -31 -21 -74 -91 -74
-120 0 -7 -14 -24 -30 -38 -35 -29 -60 -72 -60 -104 0 -12 -15 -39 -34 -60
-32 -35 -56 -91 -56 -130 0 -9 -7 -23 -17 -30 -24 -20 -55 -96 -52 -127 2 -17
-8 -44 -25 -69 -23 -34 -28 -53 -27 -94 0 -38 -5 -59 -22 -83 -17 -24 -22 -46
-23 -96 0 -42 -7 -77 -18 -99 -14 -27 -17 -47 -12 -89 5 -40 2 -67 -10 -99
-14 -37 -15 -52 -6 -94 9 -38 9 -60 0 -94 -10 -35 -9 -54 0 -87 15 -51 15 -50
7 -114 -6 -40 -3 -58 12 -90 15 -29 18 -48 12 -74 -9 -39 -3 -71 19 -115 9
-16 16 -55 17 -86 1 -44 6 -64 26 -90 18 -24 26 -48 28 -82 1 -50 19 -94 45
-116 9 -8 16 -29 16 -48 0 -44 21 -92 54 -122 16 -16 26 -35 26 -53 0 -37 20
-75 59 -112 17 -17 31 -38 31 -49 0 -34 31 -85 65 -108 20 -14 36 -35 39 -52
8 -39 42 -84 76 -102 17 -9 33 -28 40 -49 11 -35 63 -89 97 -100 10 -4 27 -26
38 -49 15 -31 33 -49 68 -68 27 -14 57 -39 67 -56 23 -39 63 -70 100 -78 17
-4 30 -11 30 -15 0 -21 73 -80 111 -90 25 -7 52 -24 67 -42 28 -32 77 -58 113
-58 11 0 30 -11 41 -25 25 -32 63 -52 108 -56 19 -2 51 -16 70 -31 34 -26 115
-52 132 -42 4 3 24 -7 44 -22 26 -20 50 -29 92 -32 32 -2 80 -15 110 -29 40
-19 61 -24 90 -19 26 4 52 -1 89 -16 45 -18 59 -20 97 -11 30 7 50 7 62 0 35
-20 98 -26 134 -13 28 10 42 10 65 0 40 -17 78 -17 120 0 28 12 45 13 87 4 45
-9 59 -8 93 7 26 12 59 17 96 16 42 -2 68 3 99 19 23 12 56 21 73 20 59 -3 74
0 109 24 23 15 54 25 91 28 40 3 65 12 91 31 19 15 47 27 63 27 38 1 109 34
125 59 8 13 23 21 41 21 40 0 95 28 119 60 14 19 33 30 61 34 31 5 52 18 84
51 23 25 46 45 50 45 25 0 96 47 114 76 12 20 37 41 57 50 46 19 77 47 92 84
7 16 25 34 42 41 36 15 73 52 89 90 6 15 29 39 51 54 27 18 47 43 65 81 13 30
28 54 33 54 20 0 70 64 80 102 7 24 24 51 42 66 32 28 58 77 58 113 0 11 11
30 25 41 32 25 52 63 56 108 2 19 16 51 31 70 26 34 52 115 42 132 -3 4 7 24
22 44 20 26 29 50 32 92 2 32 15 80 29 110 19 40 24 61 19 90 -4 26 1 52 16
89 18 45 20 59 11 97 -7 30 -7 50 0 62 19 34 26 98 13 134 -9 27 -9 43 1 70
16 47 16 74 -1 115 -12 28 -13 45 -4 89 10 47 9 58 -9 94 -15 31 -19 54 -15
95 3 41 -1 63 -18 96 -12 24 -21 57 -20 74 3 59 0 74 -24 109 -15 23 -25 54
-28 91 -3 40 -12 65 -31 91 -15 19 -27 47 -27 63 -1 38 -34 109 -59 125 -13 8
-21 23 -21 41 0 39 -27 92 -60 120 -17 15 -30 38 -34 63 -6 28 -21 51 -52 81
-24 24 -44 46 -44 50 0 25 -47 96 -76 114 -20 12 -41 37 -50 57 -19 46 -47 77
-84 92 -16 6 -34 25 -40 41 -14 32 -68 84 -98 93 -11 4 -32 25 -47 47 -18 28
-43 48 -81 66 -30 13 -54 28 -54 32 0 19 -63 69 -101 80 -23 7 -53 26 -67 43
-28 32 -77 58 -113 58 -11 0 -30 11 -41 25 -26 33 -67 54 -114 57 -23 1 -47
11 -63 26 -32 30 -59 41 -108 44 -22 1 -52 12 -71 27 -24 17 -50 26 -90 28
-32 3 -74 14 -97 26 -28 15 -56 21 -95 20 -37 -1 -69 6 -99 20 -38 17 -51 19
-94 10 -39 -8 -56 -7 -78 4 -32 16 -109 20 -133 6 -12 -7 -32 -5 -63 5 -38 13
-53 13 -87 3 -23 -7 -51 -13 -63 -12 -13 0 -47 2 -76 3 -35 1 -62 -3 -78 -13
-17 -12 -41 -15 -85 -11 -49 3 -67 0 -95 -17 -24 -15 -51 -21 -90 -21 -43 0
-65 -6 -93 -25 -24 -16 -51 -25 -76 -25 -47 0 -88 -15 -117 -42 -13 -12 -25
-19 -28 -16 -16 16 -152 375 -145 383 4 6 -19 85 -53 178 l-60 167 -106 0
-107 0 -36 38 c-19 20 -42 57 -51 82 -65 193 -306 806 -333 851 -19 30 -37 71
-40 90 l-5 34 189 88 c104 48 193 87 197 87 5 0 16 -7 24 -15 13 -11 25 -12
58 -3 41 10 43 9 104 -40 57 -46 67 -51 131 -57 l70 -7 54 53 c38 38 52 59 48
71 -7 22 -1 22 53 2 39 -15 45 -15 61 -1 15 13 23 13 82 -7 36 -12 92 -39 125
-60 l59 -38 29 32 c15 17 27 38 25 45 -7 29 -105 96 -180 123 -51 17 -78 32
-78 42 0 8 -16 39 -36 68 l-35 53 29 34 c66 74 43 187 -48 233 -62 32 -105 25
-188 -30 -156 -104 -234 -143 -545 -279 -266 -115 -330 -140 -337 -128 -22 34
-188 -6 -229 -55 -9 -11 1 -54 46 -193 52 -162 57 -185 54 -254 -2 -51 3 -88
13 -113 12 -28 12 -38 3 -41 -7 -3 -412 -104 -902 -226 -489 -121 -1288 -319
-1774 -440 -486 -120 -889 -219 -896 -219 -7 0 -17 17 -22 39 l-10 39 58 17
57 18 4 64 c2 36 0 67 -3 69 -3 2 -42 -8 -85 -21 -43 -14 -80 -25 -81 -25 -3
0 -31 95 -213 720 -89 305 -189 648 -222 763 -34 114 -58 210 -55 213 3 4 138
9 299 11 283 5 298 4 444 -21 170 -29 205 -31 222 -14 36 36 -4 84 -105 127
-102 42 -226 53 -723 61 -447 7 -603 17 -790 50 -79 15 -340 21 -374 10z
m4977 -1632 c-6 -7 -455 -560 -998 -1228 -544 -668 -1076 -1323 -1183 -1455
-107 -132 -199 -244 -203 -249 -5 -5 -36 -2 -76 9 -45 13 -102 19 -170 19 -57
0 -103 2 -103 3 0 2 -428 1577 -527 1940 -20 73 -34 135 -31 138 6 7 -14 1
1773 450 825 207 1502 379 1504 381 11 10 23 3 14 -8z m-3520 -1073 c20 -71
86 -308 147 -525 61 -217 150 -532 197 -700 47 -168 105 -374 129 -459 24 -85
43 -156 41 -157 -1 -1 -77 -4 -169 -6 l-166 -4 1 51 c0 31 -6 63 -18 85 -11
21 -19 57 -20 91 -1 44 -6 64 -26 90 -18 24 -26 48 -28 82 -1 50 -19 94 -45
116 -9 8 -16 29 -16 48 0 44 -21 92 -54 122 -16 16 -26 35 -26 53 0 38 -22 80
-60 111 -16 14 -30 35 -30 47 0 34 -36 94 -68 112 -19 11 -32 29 -36 49 -8 41
-41 86 -76 104 -16 8 -34 30 -43 53 -16 39 -61 85 -94 96 -10 4 -26 25 -37 47
-10 22 -31 48 -46 58 l-28 17 261 281 c144 155 265 279 268 275 3 -4 22 -65
42 -137z m-2043 -326 c234 -21 458 -83 665 -183 119 -58 298 -171 293 -185 -2
-5 -226 -248 -498 -540 -489 -525 -495 -531 -512 -509 -14 19 -19 21 -42 10
-22 -10 -31 -9 -52 4 -23 16 -26 15 -44 -1 -17 -15 -25 -16 -45 -7 -20 9 -27
8 -42 -6 -9 -9 -31 -17 -47 -17 -23 0 -34 -6 -41 -23 -6 -14 -18 -22 -30 -21
-36 2 -43 -1 -49 -25 -4 -18 -14 -26 -34 -28 -21 -2 -28 -9 -30 -31 -2 -19
-11 -31 -28 -37 -17 -7 -24 -17 -24 -37 0 -18 -8 -33 -21 -41 -16 -10 -20 -20
-16 -40 4 -19 -1 -34 -15 -49 -16 -17 -18 -25 -8 -43 9 -17 8 -26 -5 -47 -15
-23 -15 -26 1 -44 14 -16 15 -24 6 -44 -10 -21 -8 -28 10 -44 15 -14 19 -27
14 -45 -5 -20 -1 -29 19 -42 14 -9 25 -24 24 -33 -3 -32 1 -39 25 -45 18 -4
26 -14 28 -33 2 -22 9 -29 31 -33 16 -3 33 -15 40 -30 10 -19 19 -24 39 -22
l26 3 -14 -56 c-8 -31 -14 -77 -12 -103 2 -38 8 -49 28 -59 51 -26 445 -7 467
23 7 10 13 12 18 4 4 -6 2 -17 -5 -25 -9 -10 -8 -19 1 -37 7 -13 12 -31 10
-41 -1 -9 5 -20 13 -23 9 -3 16 -10 16 -14 0 -20 -70 -75 -178 -140 -97 -58
-140 -76 -250 -108 -86 -25 -141 -47 -158 -63 -22 -21 -28 -22 -64 -12 -22 6
-42 7 -45 4 -9 -16 75 -178 112 -217 39 -41 109 -69 193 -76 30 -3 35 0 38 20
2 15 10 22 24 22 21 0 1021 79 1306 103 83 7 152 10 152 5 0 -14 -185 -200
-259 -260 -443 -357 -1015 -499 -1565 -387 -654 133 -1196 612 -1405 1244
-225 682 -52 1415 453 1921 394 393 940 593 1486 543z m7955 1 c493 -46 938
-270 1255 -633 611 -698 623 -1730 29 -2442 -438 -525 -1139 -771 -1811 -635
-744 151 -1327 739 -1472 1485 -131 673 125 1378 659 1811 74 60 174 129 179
123 2 -2 166 -413 366 -914 199 -500 363 -912 365 -913 2 -2 49 13 106 34 77
28 115 37 155 35 59 -2 113 20 153 63 14 14 30 26 37 26 16 0 9 98 -12 157
-27 74 -105 120 -188 111 l-42 -5 -22 56 c-11 31 -93 247 -182 481 -89 234
-213 560 -276 725 -63 166 -114 306 -114 312 0 16 162 67 292 93 186 37 346
46 523 30z m-6763 -568 c232 -243 388 -523 468 -840 17 -65 30 -122 30 -128 0
-12 -21 -13 -740 -39 -496 -18 -719 -21 -747 -11 -15 5 -23 15 -23 31 0 13 -7
28 -16 33 -14 8 68 100 460 521 263 281 481 511 485 511 5 0 42 -35 83 -78z
m1388 -1018 c13 -34 13 -34 -10 -34 -12 0 -26 -12 -35 -30 -9 -18 -23 -30 -36
-30 -12 0 -23 -10 -29 -25 -5 -14 -20 -29 -34 -34 -13 -6 -26 -21 -30 -36 -4
-14 -18 -31 -31 -37 -17 -8 -25 -19 -25 -37 0 -15 -8 -31 -20 -39 -12 -7 -20
-23 -20 -41 0 -16 -7 -34 -16 -42 -11 -9 -14 -22 -10 -41 4 -22 2 -28 -12 -28
-13 0 -17 9 -18 38 -1 20 -3 55 -4 77 -1 22 1 60 5 85 5 32 3 56 -7 80 -10 24
-12 44 -6 65 5 17 7 51 4 77 l-5 47 132 4 c73 1 147 4 165 5 27 2 34 -3 42
-24z m-876 -41 c12 -67 19 -349 10 -364 -8 -13 -41 -12 -269 11 -143 15 -454
47 -691 71 -417 42 -431 44 -448 67 -16 21 -17 27 -5 49 12 22 11 26 -9 42
-18 13 -21 23 -16 48 5 26 3 32 -15 38 -50 16 -13 25 102 25 152 0 1301 42
1328 48 4 1 9 -15 13 -35z m-869 -493 c308 -33 572 -60 588 -60 21 0 30 -7 38
-27 23 -61 79 -96 154 -97 47 -1 50 -2 46 -26 -8 -62 -77 -246 -135 -365 -65
-131 -168 -292 -196 -306 -8 -4 -353 -33 -766 -66 l-752 -58 2 36 c1 21 8 44
16 54 11 14 11 18 -2 31 -30 31 -11 58 67 93 40 18 113 58 161 90 49 31 126
79 171 106 117 69 179 129 188 183 16 95 -26 148 -182 232 -107 57 -130 86
-76 92 22 2 29 9 33 33 3 19 12 31 25 34 26 4 36 21 29 45 -5 16 9 35 26 36 3
0 257 -27 565 -60z m1439 -249 c12 -13 15 -27 11 -41 -5 -15 0 -29 15 -45 14
-15 20 -30 16 -43 -5 -14 1 -24 19 -36 16 -10 25 -26 25 -41 0 -17 8 -29 24
-36 14 -7 26 -23 30 -40 4 -21 11 -29 26 -29 14 0 24 -10 31 -30 8 -22 17 -30
35 -30 16 0 28 -8 36 -25 8 -18 19 -25 38 -25 19 0 33 -9 45 -26 13 -20 22
-24 40 -20 17 4 28 0 39 -15 11 -17 20 -20 45 -14 20 4 31 3 31 -4 0 -6 -7
-11 -14 -11 -17 0 -659 -57 -719 -64 -33 -4 -37 -2 -31 12 4 10 12 38 18 63 6
26 19 55 28 66 25 28 50 91 47 122 -2 15 8 43 25 68 23 34 28 53 27 94 0 37 5
59 19 79 11 16 23 42 26 59 8 37 41 42 68 12z"/>
</g>
</svg>
