<?xml version="1.0" standalone="no"?>
<!DOCTYPE svg PUBLIC "-//W3C//DTD SVG 20010904//EN"
 "http://www.w3.org/TR/2001/REC-SVG-20010904/DTD/svg10.dtd">
<svg version="1.0" xmlns="http://www.w3.org/2000/svg"
 width="1280.000000pt" height="740.000000pt" viewBox="0 0 1280.000000 740.000000"
 preserveAspectRatio="xMidYMid meet">
<metadata>
Created by potrace 1.15, written by Peter Selinger 2001-2017
</metadata>
<g transform="translate(0.000000,740.000000) scale(0.100000,-0.100000)"
fill="#000000" stroke="none">
<path d="M4859 7380 c-91 -19 -227 -77 -303 -129 -123 -85 -243 -231 -299
-366 -77 -185 -88 -412 -25 -557 l21 -48 -316 -758 c-174 -416 -349 -836 -389
-933 l-73 -177 -50 26 c-183 92 -444 184 -647 227 -118 25 -346 55 -420 55
l-38 0 0 -68 0 -69 -122 -7 c-435 -24 -819 -148 -1163 -373 -550 -361 -910
-924 -1012 -1583 -24 -159 -24 -499 1 -660 80 -515 306 -954 677 -1316 904
-880 2361 -852 3239 62 52 55 117 127 144 162 27 34 52 62 57 62 4 0 30 -18
58 -40 l50 -40 70 106 c261 394 394 844 394 1329 0 376 -64 676 -218 1016
-130 290 -352 592 -575 785 -50 43 -90 80 -90 83 0 16 75 181 82 179 4 -2 546
-479 1206 -1061 l1198 -1057 -13 -73 c-40 -232 8 -445 138 -607 l49 -61 -142
-319 -143 -320 -82 0 -83 0 0 -165 0 -165 420 0 420 0 0 165 0 165 -101 0
c-61 0 -99 4 -97 10 2 5 46 106 98 225 l95 214 95 1 c119 0 202 20 310 72 68
33 101 57 170 127 91 92 143 175 176 286 10 33 19 61 19 63 3 5 379 33 390 28
7 -2 15 -22 18 -43 11 -67 68 -254 108 -356 217 -546 617 -978 1144 -1238 376
-185 829 -269 1230 -228 55 5 127 12 160 14 76 6 142 19 278 56 474 128 919
431 1220 832 233 309 393 695 443 1062 9 66 18 130 20 142 4 21 8 22 68 16
l63 -6 6 48 c10 69 8 204 -3 330 -54 578 -305 1106 -719 1513 -310 305 -700
526 -1111 628 -186 46 -317 64 -510 71 -331 12 -667 -49 -992 -177 -55 -22
-104 -40 -109 -40 -8 0 -589 1014 -589 1028 0 4 51 120 113 256 l112 248 330
154 c181 85 342 166 357 181 45 43 71 118 66 188 -6 69 -24 109 -69 154 -63
64 -73 66 -314 68 -121 1 -530 7 -910 14 l-690 12 -42 -21 c-74 -38 -114 -125
-93 -203 21 -78 63 -110 319 -238 130 -65 317 -156 416 -201 99 -45 181 -83
182 -85 2 -1 -43 -99 -99 -218 l-102 -217 -1958 0 c-1077 0 -1958 3 -1958 6 0
3 61 151 135 330 74 179 135 330 135 336 0 6 -14 38 -30 72 -127 258 23 554
306 607 87 16 137 8 493 -86 179 -46 327 -83 329 -80 5 5 92 375 92 392 0 14
-4 15 -370 111 -373 98 -476 109 -651 72z m3289 -2175 c1 -1 -62 -145 -141
-321 -124 -275 -375 -840 -537 -1209 l-49 -110 -185 -3 -186 -2 0 -180 0 -180
105 0 c58 0 105 -3 104 -7 0 -5 -51 -123 -113 -263 l-113 -255 -99 -6 c-110
-7 -192 -33 -295 -94 -54 -31 -64 -34 -78 -22 -9 8 -574 506 -1256 1107 -682
601 -1242 1094 -1244 1096 -3 2 172 433 186 456 3 7 3893 -1 3901 -7z m612
-527 c118 -205 216 -377 217 -383 1 -5 -34 -37 -79 -70 -113 -84 -314 -279
-410 -399 -209 -259 -363 -548 -457 -853 -57 -188 -59 -208 -25 -244 l27 -28
-12 -84 c-6 -46 -14 -140 -18 -210 -4 -83 -10 -127 -17 -127 -6 0 -94 -7 -195
-15 -101 -9 -184 -15 -185 -13 -1 2 -21 35 -45 75 -23 40 -65 94 -91 122 l-49
49 93 214 c51 117 119 275 152 351 l59 137 87 0 88 0 0 179 c0 99 -4 181 -9
183 -10 4 1 29 365 851 151 340 274 623 274 628 0 5 3 9 8 9 4 0 104 -167 222
-372z m1937 -717 c336 -69 630 -228 879 -476 177 -176 289 -341 375 -550 206
-504 158 -1068 -132 -1542 -123 -201 -324 -402 -529 -531 -164 -102 -383 -190
-585 -232 -195 -41 -489 -38 -700 7 -180 38 -415 135 -570 235 -292 188 -539
487 -669 810 -38 94 -80 237 -73 244 6 6 793 68 1140 89 l268 17 37 -25 c20
-14 64 -38 97 -54 130 -59 281 -27 385 83 147 156 146 374 -3 511 -53 49 -87
68 -151 84 -28 7 -53 20 -61 33 -7 11 -164 286 -349 611 -249 437 -332 591
-322 597 34 19 201 69 296 88 200 41 467 41 667 1z m-8119 5 c202 -37 395
-105 545 -192 42 -25 77 -48 77 -51 0 -3 -50 -127 -111 -276 -301 -735 -295
-723 -387 -809 -98 -92 -204 -135 -362 -147 -111 -8 -146 -20 -194 -68 -82
-81 -74 -220 18 -300 52 -46 95 -57 200 -49 355 25 673 233 835 546 21 41 105
239 186 440 81 201 150 370 154 377 4 8 31 -18 73 -70 278 -347 420 -802 379
-1217 -54 -537 -314 -977 -749 -1271 -398 -268 -911 -355 -1378 -233 -314 81
-596 252 -825 499 -310 335 -469 798 -438 1271 41 603 398 1133 944 1400 175
85 367 141 565 164 103 12 367 4 468 -14z m7115 -913 c191 -328 346 -598 344
-599 -3 -4 -1307 -94 -1352 -94 l-28 0 7 68 c21 211 78 417 166 597 104 215
236 390 407 539 54 47 100 86 103 86 3 0 162 -268 353 -597z"/>
</g>
</svg>
