<?xml version="1.0" standalone="no"?>
<!DOCTYPE svg PUBLIC "-//W3C//DTD SVG 20010904//EN"
 "http://www.w3.org/TR/2001/REC-SVG-20010904/DTD/svg10.dtd">
<svg version="1.0" xmlns="http://www.w3.org/2000/svg"
 width="1280.000000pt" height="1280.000000pt" viewBox="0 0 1280.000000 1280.000000"
 preserveAspectRatio="xMidYMid meet">
<metadata>
Created by potrace 1.15, written by Peter Selinger 2001-2017
</metadata>
<g transform="translate(0.000000,1280.000000) scale(0.100000,-0.100000)"
fill="" stroke="none">
<path d="M6095 12794 c-1166 -62 -2264 -420 -3218 -1051 -1338 -883 -2298
-2238 -2686 -3791 -77 -306 -134 -645 -168 -997 -24 -252 -24 -858 0 -1110
106 -1105 452 -2091 1045 -2984 944 -1421 2427 -2414 4092 -2740 431 -85 756
-115 1235 -115 476 0 802 29 1220 110 2057 397 3796 1786 4644 3708 277 627
448 1293 518 2021 24 252 24 858 0 1110 -60 624 -192 1194 -402 1740 -610
1585 -1835 2872 -3390 3560 -637 282 -1315 456 -2025 520 -166 15 -712 27
-865 19z m418 -221 c64 -20 148 -98 178 -165 19 -42 24 -70 24 -133 -1 -98
-26 -157 -97 -227 -154 -150 -412 -101 -508 97 -20 40 -25 66 -25 130 0 101
27 165 96 230 95 89 200 110 332 68z m-1506 -203 c60 -26 128 -94 160 -158 22
-46 28 -70 28 -132 0 -127 -62 -230 -172 -286 -52 -26 -68 -29 -148 -29 -73 1
-98 5 -133 23 -66 35 -119 88 -149 150 -24 49 -28 69 -28 142 0 72 4 92 27
135 46 88 133 155 228 176 49 11 137 1 187 -21z m3039 0 c59 -26 130 -93 162
-155 23 -43 27 -63 27 -135 0 -73 -4 -93 -28 -142 -30 -62 -83 -115 -149 -150
-35 -18 -60 -22 -133 -23 -80 0 -96 3 -148 29 -110 56 -172 160 -171 286 0 88
22 146 80 209 93 104 233 135 360 81z m-4438 -601 c250 -128 217 -499 -52
-583 -150 -47 -317 28 -385 173 -21 45 -26 70 -25 131 0 91 23 148 85 215 101
110 241 133 377 64z m5859 11 c62 -26 135 -101 166 -168 32 -71 30 -180 -4
-253 -113 -241 -453 -250 -572 -15 -135 268 135 555 410 436z m-2676 -40 c740
-57 1407 -245 2063 -583 155 -80 372 -204 399 -227 5 -4 -136 -322 -311 -706
-176 -385 -494 -1079 -707 -1544 -212 -465 -443 -970 -513 -1122 -70 -153
-130 -278 -133 -278 -7 0 -3438 3933 -3452 3957 -6 10 9 21 60 44 543 246
1180 410 1778 458 158 12 658 13 816 1z m-1717 -2230 c635 -894 1155 -1629
1156 -1635 1 -6 -417 -92 -951 -197 -1012 -198 -1322 -259 -1724 -338 -137
-27 -459 -90 -715 -140 -256 -50 -485 -95 -510 -100 -25 -5 -252 -50 -505 -99
-253 -50 -525 -103 -605 -119 l-145 -28 -3 27 c-6 50 39 361 83 584 42 207
126 525 175 660 74 201 98 263 151 387 454 1063 1263 1967 2274 2543 82 47
153 84 157 83 4 -2 527 -734 1162 -1628z m-2734 1349 c53 -13 125 -63 159
-109 45 -63 64 -129 59 -213 -9 -169 -129 -287 -298 -295 -100 -5 -170 21
-238 88 -152 150 -111 413 79 510 70 36 146 42 239 19z m8347 -14 c195 -87
247 -359 98 -509 -71 -70 -123 -91 -230 -91 -105 0 -158 20 -224 86 -59 59
-85 120 -89 209 -8 169 98 303 259 328 72 11 123 5 186 -23z m-1070 -167 c478
-358 912 -819 1248 -1328 503 -761 790 -1587 870 -2500 20 -236 21 -670 1
-670 -13 0 -472 -43 -2396 -225 -267 -26 -732 -70 -1035 -99 -302 -29 -551
-52 -552 -51 -2 1 1675 4901 1702 4973 6 17 3 18 162 -100z m-8174 -1051 c142
-65 218 -234 171 -383 -77 -246 -406 -302 -558 -95 -194 264 90 614 387 478z
m10180 0 c141 -65 215 -226 172 -373 -57 -197 -269 -289 -451 -197 -152 77
-214 259 -141 415 74 161 260 229 420 155z m-10760 -1421 c61 -29 114 -82 149
-148 19 -36 23 -59 23 -133 0 -80 -3 -97 -29 -148 -35 -69 -79 -110 -156 -146
-79 -37 -182 -36 -262 3 -114 54 -180 162 -180 293 0 138 92 258 232 304 50
17 165 4 223 -25z m11352 1 c62 -31 129 -102 156 -165 27 -61 28 -164 2 -234
-24 -69 -91 -141 -161 -174 -112 -54 -255 -33 -353 54 -77 67 -118 214 -90
319 14 53 66 128 113 166 89 71 232 86 333 34z m-5127 -1407 l231 -400 -231
-400 -230 -400 -458 0 -458 0 -230 400 -231 400 231 400 230 400 458 0 458 0
230 -400z m-2497 -1146 c-253 -736 -487 -1419 -520 -1517 -34 -97 -88 -256
-121 -352 -10 -29 -218 -636 -240 -700 -127 -371 -185 -539 -272 -795 -50
-146 -94 -269 -98 -273 -9 -10 -209 138 -370 272 -664 556 -1184 1261 -1515
2056 -267 642 -405 1329 -405 2026 l0 246 123 11 c237 22 2670 253 3267 310
333 32 606 58 607 57 2 -1 -204 -604 -456 -1341z m-3933 1034 c26 -12 68 -44
94 -70 150 -154 101 -412 -97 -508 -70 -34 -188 -35 -260 -2 -135 62 -210 205
-184 349 13 72 30 103 82 160 43 47 76 68 142 90 56 18 165 10 223 -19z
m11750 2 c108 -47 185 -167 185 -290 0 -122 -76 -242 -185 -291 -81 -36 -193
-34 -272 6 -216 109 -237 405 -39 548 84 60 209 71 311 27z m-692 -923 c-103
-849 -394 -1637 -868 -2345 -401 -599 -914 -1106 -1523 -1504 -142 -93 -384
-237 -425 -253 -11 -4 -322 427 -1172 1622 -636 896 -1158 1632 -1160 1637 -2
5 130 35 292 67 518 102 794 156 1270 249 256 50 485 95 510 100 25 5 254 50
510 100 256 50 485 95 510 100 25 5 254 50 510 100 256 50 485 95 510 100 25
5 254 50 510 100 256 50 481 94 500 98 32 7 35 6 38 -16 2 -13 -4 -83 -12
-155z m-4780 -2218 c945 -1085 1723 -1978 1727 -1986 6 -10 -9 -21 -60 -44
-554 -251 -1174 -409 -1802 -458 -191 -15 -635 -13 -842 4 -713 58 -1368 246
-2013 578 -155 80 -372 204 -399 227 -5 4 202 466 458 1026 256 561 631 1380
833 1821 202 442 370 803 373 803 3 0 779 -887 1725 -1971z m-6068 1610 c231
-113 228 -451 -6 -566 -49 -24 -69 -28 -142 -28 -72 0 -92 4 -135 27 -63 32
-129 103 -157 166 -26 61 -28 159 -5 229 32 93 128 178 231 204 56 15 147 1
214 -32z m11346 6 c113 -53 182 -167 179 -295 -2 -114 -70 -222 -178 -278 -43
-23 -63 -27 -135 -27 -73 0 -93 4 -142 28 -102 50 -168 146 -176 258 -18 249
228 420 452 314z m-10806 -1400 c78 -23 144 -82 184 -162 29 -58 33 -78 33
-143 0 -89 -29 -162 -90 -224 -92 -93 -242 -119 -357 -63 -143 70 -216 227
-173 373 51 176 226 271 403 219z m10167 4 c102 -28 189 -116 220 -223 31
-107 5 -213 -75 -300 -122 -132 -330 -137 -455 -10 -61 62 -90 135 -90 224 0
65 5 85 33 142 68 139 219 207 367 167z m-9191 -1239 c62 -31 118 -88 148
-148 19 -39 23 -63 23 -137 0 -107 -21 -159 -91 -230 -115 -115 -325 -114
-441 2 -129 128 -129 328 0 456 63 63 130 88 232 84 62 -2 91 -8 129 -27z
m8292 9 c35 -13 74 -38 100 -64 205 -206 68 -545 -221 -545 -125 0 -232 66
-286 177 -28 57 -37 172 -19 230 28 89 115 179 205 211 53 18 159 14 221 -9z
m-7118 -924 c117 -35 209 -153 220 -281 19 -239 -223 -410 -446 -314 -60 26
-135 101 -162 164 -110 247 126 509 388 431z m5913 -17 c71 -32 124 -86 158
-157 34 -73 36 -182 4 -253 -67 -148 -230 -227 -378 -183 -198 57 -291 268
-198 451 77 152 258 214 414 142z m-4446 -593 c108 -55 170 -159 169 -285 0
-95 -34 -170 -103 -232 -60 -54 -130 -80 -218 -80 -84 0 -145 25 -209 84 -152
140 -133 379 40 496 65 43 98 52 187 48 61 -2 89 -9 134 -31z m3041 2 c60 -30
118 -92 148 -156 32 -70 29 -198 -6 -266 -32 -63 -103 -129 -166 -156 -61 -27
-164 -28 -234 -2 -147 52 -237 227 -194 375 30 105 103 185 203 223 61 23 186
15 249 -18z m-1551 -188 c67 -25 141 -94 175 -164 20 -40 25 -66 25 -130 0
-104 -27 -167 -101 -234 -124 -114 -304 -114 -428 0 -74 67 -101 130 -101 234
1 98 26 157 97 227 87 85 216 111 333 67z"/>
</g>
</svg>
