<?xml version="1.0" standalone="no"?>
<!DOCTYPE svg PUBLIC "-//W3C//DTD SVG 20010904//EN"
 "http://www.w3.org/TR/2001/REC-SVG-20010904/DTD/svg10.dtd">
<svg version="1.0" xmlns="http://www.w3.org/2000/svg"
 width="1280.000000pt" height="1084.000000pt" viewBox="0 0 1280.000000 1084.000000"
 preserveAspectRatio="xMidYMid meet">
 <title>A sick whip</title>
  <desc id="catDesc">An illustrated gray cat with bright green blinking eyes.</desc>
<metadata>
Created by potrace 1.15, written by Peter Selinger 2001-2017
</metadata>
<g transform="translate(0.000000,1084.000000) scale(0.100000,-0.100000)"
fill="" stroke="none">
<path d="M11065 10825 c-209 -30 -399 -87 -581 -174 -583 -281 -1050 -863
-1247 -1556 -73 -258 -112 -561 -103 -800 4 -88 9 -181 12 -208 l6 -47 -38
-15 c-73 -29 -108 -50 -151 -91 -37 -35 -43 -46 -43 -81 l0 -41 -113 -61 c-63
-33 -169 -78 -237 -101 -67 -22 -132 -46 -144 -52 -41 -20 -86 -73 -96 -109
-11 -40 1 -122 22 -146 6 -8 9 -15 7 -17 -43 -34 -295 -166 -317 -166 -41 0
-110 33 -126 61 -49 82 -196 229 -229 229 -26 0 -40 -20 -42 -59 -1 -23 -4
-43 -6 -44 -54 -35 -248 -30 -316 9 -27 15 -58 24 -86 24 -35 0 -56 8 -94 34
-28 19 -68 39 -89 45 -50 14 -332 49 -455 57 l-95 7 -13 -29 -13 -29 -12 47
c-7 26 -18 54 -25 62 -17 21 6 50 84 106 62 45 106 59 189 60 33 0 76 11 130
34 45 19 97 36 116 38 29 2 34 7 32 23 -6 36 -73 123 -128 166 -48 37 -114
117 -114 138 0 4 -13 17 -29 29 -17 12 -32 35 -36 54 -4 18 -27 52 -52 78 -24
25 -73 78 -108 118 -58 65 -65 78 -65 115 0 46 -33 111 -53 104 -25 -9 -197
94 -262 157 -63 61 -170 132 -221 146 -77 22 -238 0 -333 -45 -274 -130 -503
-383 -598 -659 -46 -134 -61 -240 -52 -351 5 -55 15 -122 24 -149 28 -92 21
-94 -110 -19 l-80 46 -130 1 c-170 1 -260 -22 -399 -102 -112 -65 -242 -180
-293 -259 -18 -29 -50 -66 -72 -83 -45 -36 -86 -107 -96 -165 -4 -22 -22 -69
-40 -105 -18 -36 -40 -88 -48 -117 -9 -29 -31 -92 -51 -140 -41 -104 -76 -251
-83 -345 l-5 -66 -43 -11 c-24 -6 -66 -11 -93 -11 -85 0 -104 -13 -221 -149
-60 -70 -113 -137 -119 -148 -6 -11 -16 -51 -22 -89 -15 -98 -17 -102 -61
-125 -42 -21 -69 -65 -69 -112 0 -35 -45 -119 -82 -153 -18 -17 -58 -41 -88
-54 -30 -13 -79 -39 -108 -58 -30 -18 -67 -35 -83 -39 -16 -3 -35 -14 -42 -23
-7 -10 -36 -32 -65 -49 -28 -16 -103 -82 -166 -146 -67 -67 -122 -115 -134
-115 -21 0 -46 -25 -56 -55 -3 -11 -34 -38 -69 -59 -34 -22 -90 -62 -124 -88
-35 -26 -69 -48 -77 -48 -8 0 -27 -11 -43 -24 -15 -13 -66 -40 -113 -60 -47
-21 -100 -47 -118 -58 -46 -28 -49 -18 -9 29 39 47 167 273 167 295 0 9 7 21
16 29 8 7 26 33 39 58 13 25 47 69 75 96 71 68 129 160 178 285 45 113 50 146
28 188 -42 80 -153 153 -461 301 -110 54 -252 127 -315 163 -142 81 -320 159
-380 165 -25 3 -64 11 -88 19 -26 9 -86 14 -158 14 -122 0 -167 -11 -213 -53
-27 -25 -81 -132 -81 -160 0 -36 32 -85 71 -111 48 -32 321 -284 369 -340 19
-23 58 -65 85 -93 90 -93 145 -160 145 -176 0 -20 -47 -59 -121 -98 -73 -39
-90 -62 -119 -159 -12 -41 -34 -97 -50 -125 -15 -27 -45 -90 -65 -138 -33 -76
-49 -100 -119 -170 -114 -115 -305 -357 -358 -452 -24 -44 -74 -123 -110 -177
-36 -53 -72 -113 -78 -134 -19 -55 -7 -372 15 -415 16 -29 227 -179 285 -201
82 -31 261 -28 443 8 112 21 406 129 706 259 238 102 537 176 891 220 178 23
367 17 462 -14 88 -28 113 -58 313 -376 206 -329 218 -347 286 -435 126 -167
259 -385 259 -426 0 -7 -37 -13 -97 -17 -54 -3 -186 -17 -293 -31 -107 -14
-256 -28 -330 -32 -84 -4 -147 -12 -167 -21 -32 -15 -53 -11 -53 8 0 22 -128
155 -203 211 -60 44 -87 58 -113 58 -102 0 -203 -98 -254 -245 -11 -32 -29
-74 -40 -92 -13 -22 -20 -52 -20 -84 0 -67 -46 -272 -76 -334 -13 -27 -50 -81
-84 -118 -105 -119 -209 -360 -227 -528 -8 -83 19 -138 89 -178 105 -61 172
-40 300 89 48 50 96 90 106 90 18 0 242 212 242 229 0 11 18 35 76 99 l31 35
63 -31 c82 -41 146 -44 180 -7 28 30 46 32 60 5 16 -30 83 -60 133 -60 24 0
108 11 188 24 79 14 182 28 229 31 47 4 142 15 211 25 138 20 151 18 309 -25
60 -16 163 -33 282 -45 103 -10 192 -21 197 -25 20 -12 167 81 244 154 74 70
80 88 88 256 3 82 12 178 20 212 16 75 6 127 -48 253 -26 61 -48 143 -78 295
-39 194 -74 329 -127 495 -30 95 -177 478 -200 525 -19 35 -41 118 -55 200 -3
17 -12 37 -20 46 -20 24 -52 165 -50 221 l2 48 142 0 c103 0 144 3 150 13 17
26 57 127 89 220 18 54 42 113 53 131 11 18 72 81 136 140 63 59 115 116 115
125 0 11 28 35 74 64 96 61 127 97 262 302 96 147 125 182 195 244 46 40 107
86 136 102 122 70 307 233 399 351 25 32 53 62 62 67 24 13 116 -12 162 -44
21 -14 59 -29 86 -34 43 -6 66 -21 189 -124 147 -123 310 -223 616 -381 245
-127 360 -137 459 -41 19 18 82 57 139 86 97 48 115 62 236 183 73 72 167 175
210 229 43 54 81 94 85 90 4 -4 19 -75 34 -158 15 -82 58 -321 96 -530 38
-209 101 -558 140 -775 68 -385 70 -396 52 -419 -25 -34 -80 -61 -125 -61 -32
0 -44 -6 -70 -35 -37 -42 -63 -44 -131 -10 -41 21 -52 33 -78 87 -17 36 -38
108 -49 168 -24 125 -34 153 -72 197 -51 58 -110 38 -165 -55 -26 -45 -27 -53
-27 -177 1 -71 4 -184 9 -250 7 -109 6 -132 -18 -253 -32 -162 -34 -269 -6
-378 30 -116 79 -182 172 -230 26 -13 49 -28 53 -34 4 -6 -7 -27 -23 -48 -55
-69 -203 -343 -272 -501 -93 -214 -136 -355 -175 -566 -65 -348 -68 -621 -10
-897 98 -471 375 -839 760 -1008 208 -91 465 -126 695 -96 475 61 890 282
1275 677 136 140 205 221 299 353 269 377 470 876 527 1311 6 50 12 169 12
265 0 325 -58 605 -178 858 -57 119 -113 199 -228 318 -123 129 -235 211 -384
281 -114 53 -123 60 -123 85 0 16 5 36 11 46 11 17 15 18 52 5 42 -15 88 -10
123 12 12 8 36 49 54 91 35 86 143 479 190 697 17 78 40 161 50 184 l20 43 67
-37 c106 -56 113 -61 106 -79 -5 -13 -2 -15 15 -10 29 10 102 -29 102 -53 0
-14 5 -18 19 -14 18 4 76 -28 93 -52 4 -5 13 -10 20 -10 7 0 28 -6 45 -14 38
-15 83 -7 83 15 0 28 -30 74 -49 74 -10 0 -24 7 -31 15 -7 8 -18 15 -24 15 -7
0 -23 12 -37 26 -13 14 -48 37 -76 50 -29 12 -53 27 -53 31 0 5 -16 15 -36 22
-19 7 -40 23 -46 36 -6 13 -16 21 -23 19 -18 -7 -79 29 -90 54 -6 13 -19 22
-31 22 -25 0 -39 15 -47 50 -13 53 -118 79 -172 44 -21 -13 -25 -24 -24 -58 2
-57 -111 -491 -160 -619 -44 -110 -63 -137 -100 -137 -21 0 -22 4 -17 38 22
146 16 205 -29 297 -25 52 -110 122 -137 113 -7 -3 -18 2 -25 11 -10 13 -15
14 -32 3 -17 -10 -25 -10 -41 0 -14 9 -23 9 -30 2 -7 -7 -25 -8 -43 -5 -38 8
7 -52 -478 639 l-381 543 13 49 c20 76 2 104 -104 163 -47 26 -95 59 -107 75
l-22 27 22 15 c12 8 41 32 66 52 60 51 117 89 189 127 80 42 151 104 176 154
12 22 30 71 40 109 16 56 17 72 7 88 -19 29 -66 25 -112 -10 l-40 -30 -162 0
-163 0 -33 -29 c-35 -30 -82 -57 -160 -90 -47 -20 -48 -20 -58 -1 -15 28 -13
38 15 65 17 18 35 25 63 25 24 0 49 8 65 20 33 26 121 65 167 74 19 3 57 1 85
-5 49 -11 54 -10 125 26 41 20 96 54 121 76 46 38 153 93 169 87 5 -2 46 -59
91 -128 104 -158 304 -363 447 -458 243 -162 466 -230 773 -239 275 -8 429 24
734 152 244 102 402 212 620 433 244 248 412 499 540 807 152 365 209 617 221
975 16 446 -72 834 -266 1170 -231 399 -595 675 -1012 766 -101 22 -329 27
-453 9z m262 -499 c5 -5 -246 -901 -286 -1020 l-18 -50 -16 67 c-9 36 -17 96
-17 132 0 70 96 861 107 878 6 10 219 4 230 -7z m-271 -33 c-4 -21 -22 -168
-41 -328 -39 -319 -44 -353 -56 -375 -7 -12 -8 -11 -9 5 0 15 -78 430 -126
666 -5 26 -2 27 63 42 100 24 105 25 141 26 34 1 34 1 28 -36z m474 -9 c41
-13 81 -28 87 -32 10 -6 -8 -70 -71 -258 -162 -480 -285 -834 -305 -872 -23
-45 -150 -168 -161 -155 -4 4 -13 37 -21 73 -25 122 -19 162 73 475 47 160
119 406 159 548 l73 259 46 -7 c25 -4 79 -18 120 -31z m-664 -395 c75 -384 86
-478 68 -575 -8 -45 -12 -39 -65 96 -23 58 -86 220 -141 360 -55 140 -113 290
-129 332 l-28 78 52 27 c62 31 161 72 165 68 2 -1 37 -175 78 -386z m863 311
c31 -17 77 -46 104 -66 43 -31 46 -36 36 -57 -22 -41 -351 -621 -407 -717 -48
-83 -146 -199 -158 -188 -4 4 49 165 236 713 121 354 118 345 126 345 3 0 32
-14 63 -30z m-1152 -123 c18 -45 98 -251 178 -457 158 -402 167 -440 151 -573
-7 -54 -8 -55 -43 -59 -34 -4 -42 1 -103 61 -58 58 -71 79 -109 171 -24 58
-108 257 -187 443 -79 185 -144 340 -144 344 0 3 8 12 18 20 30 24 194 133
201 133 3 0 20 -37 38 -83z m1408 -79 c36 -40 70 -79 75 -88 7 -13 -10 -34
-78 -96 -48 -43 -159 -149 -247 -234 -88 -85 -175 -168 -194 -185 l-34 -30 38
70 c159 291 357 635 366 635 4 0 37 -32 74 -72z m-1565 -310 c165 -389 213
-508 207 -515 -8 -7 -86 49 -129 94 -20 21 -114 155 -208 298 l-172 260 81 77
c44 43 84 78 88 78 5 0 65 -132 133 -292z m1728 72 c28 -57 52 -107 52 -110 0
-7 -709 -476 -792 -524 -27 -15 -48 -25 -48 -21 0 4 15 35 32 69 24 44 64 91
148 171 63 61 209 203 325 317 115 115 215 207 220 205 6 -2 34 -50 63 -107z
m-1927 -148 c118 -178 143 -221 137 -227 -3 -3 -218 168 -309 246 l-54 46 48
57 c27 31 52 56 55 56 4 0 59 -80 123 -178z m-8 -157 c218 -178 266 -226 327
-329 19 -32 21 -38 7 -33 -18 7 -514 282 -615 342 -34 20 -62 40 -62 44 0 14
99 161 108 161 5 0 110 -83 235 -185z m2040 73 c21 -42 37 -92 39 -117 l3 -44
-160 -95 c-88 -52 -276 -164 -418 -249 -271 -162 -300 -176 -384 -188 -50 -6
-56 -5 -111 31 -7 4 31 70 68 120 30 39 72 73 187 146 81 53 278 181 437 286
159 105 292 189 296 187 4 -3 24 -37 43 -77z m-2035 -289 c299 -168 366 -210
410 -255 28 -30 52 -59 52 -63 0 -4 -41 -11 -92 -15 -105 -8 -117 -13 -89 -33
26 -17 17 -37 -13 -29 -12 3 -161 73 -331 157 -171 83 -334 162 -363 175 -47
21 -53 26 -46 46 14 48 97 218 106 218 4 0 169 -90 366 -201z m2096 74 c10
-32 26 -147 26 -184 0 -20 -6 -39 -12 -42 -258 -103 -551 -208 -599 -216 -85
-14 -209 -20 -209 -10 0 4 89 60 198 125 108 65 282 168 386 231 103 62 192
113 196 113 5 0 11 -8 14 -17z m-2288 -283 c324 -158 385 -189 399 -202 6 -6
-36 -8 -115 -6 -119 4 -137 7 -380 76 -140 40 -260 75 -267 77 -9 3 -6 23 11
72 36 103 45 123 54 123 5 0 139 -63 298 -140z m2324 -39 l0 -70 -42 -5 c-72
-9 -284 -26 -329 -26 -26 0 -39 4 -33 9 9 9 382 160 397 161 4 0 7 -31 7 -69z
m-2486 -105 c163 -46 213 -64 195 -69 -13 -4 -120 -10 -236 -14 -163 -5 -213
-3 -213 6 0 11 31 141 34 141 0 0 100 -29 220 -64z m2483 -98 c-4 -56 -10
-105 -14 -109 -7 -5 -325 25 -692 67 l-64 7 56 28 c98 50 185 67 437 84 129 9
242 17 250 19 8 2 19 4 24 5 5 1 6 -42 3 -101z m-2033 -24 c80 -18 88 -28 31
-38 -25 -5 -35 -12 -35 -25 0 -16 -25 -24 -192 -55 -314 -60 -502 -97 -522
-103 -18 -5 -19 -1 -13 79 4 47 10 99 13 116 l6 31 137 4 c400 9 500 7 575 -9z
m1610 -79 c185 -19 349 -35 365 -35 17 0 32 -3 34 -7 4 -9 -47 -230 -55 -238
-5 -5 -199 25 -612 96 -98 16 -193 37 -210 46 -40 20 -136 93 -136 103 0 9 7
12 95 46 81 31 124 30 519 -11z m-1648 -54 c-3 -5 2 -19 12 -30 17 -21 18 -21
60 -5 51 21 63 13 35 -24 -23 -31 -213 -130 -310 -163 -35 -11 -76 -31 -91
-43 -19 -16 -80 -36 -202 -65 -96 -23 -183 -44 -192 -47 -17 -5 -18 6 -18 125
l0 130 53 10 c172 36 616 119 635 120 13 1 21 -3 18 -8z m1654 -206 c375 -63
333 -50 326 -102 -5 -35 -43 -143 -50 -143 -1 0 -112 39 -247 86 -255 89 -318
119 -384 179 l-40 36 65 -6 c36 -3 184 -26 330 -50z m-601 21 c23 -13 641
-674 649 -695 3 -10 -137 -201 -146 -200 -4 0 -99 111 -212 246 -113 135 -242
289 -287 342 -53 61 -81 102 -77 111 16 43 41 181 33 186 -12 7 -11 24 1 24 6
0 23 -6 39 -14z m188 -55 c104 -32 170 -71 391 -235 116 -87 212 -160 212
-162 0 -6 -101 -187 -112 -200 -9 -13 -27 5 -319 321 -160 174 -220 241 -248
278 -18 23 -5 23 76 -2z m-903 -81 c-20 -27 -39 -50 -44 -50 -4 0 -29 -17 -55
-37 -52 -39 -51 -33 4 37 45 59 92 99 113 100 15 0 11 -10 -18 -50z m-157 -77
c-25 -32 -53 -66 -63 -76 -43 -41 -407 -237 -419 -226 -5 5 239 212 257 218 6
2 21 14 32 26 12 13 58 37 104 54 46 17 93 38 105 46 33 23 32 19 -16 -42z
m1540 -14 c98 -34 181 -65 186 -69 8 -7 -40 -120 -51 -120 -12 0 -335 250
-324 250 6 0 91 -28 189 -61z m-2317 6 c-71 -37 -100 -43 -100 -20 0 8 16 18
38 24 20 5 53 14 72 19 59 17 57 12 -10 -23z m1613 -92 c59 -63 200 -228 377
-442 l144 -174 -84 -78 c-65 -60 -87 -76 -96 -66 -20 22 -294 486 -319 539
-30 65 -82 268 -69 268 2 0 23 -21 47 -47z m-179 21 c4 -9 13 -132 21 -273 9
-141 22 -360 30 -486 8 -127 15 -249 15 -271 l0 -42 -82 -26 c-90 -28 -163
-45 -190 -46 -17 0 -18 31 -18 518 0 482 1 520 18 535 18 16 83 44 117 49 11
2 20 9 20 16 0 12 39 41 56 42 4 0 10 -7 13 -16z m-1049 -100 c-33 -30 -73
-65 -90 -76 l-30 -21 30 33 c31 33 136 120 145 120 3 -1 -22 -26 -55 -56z
m1180 -100 c26 -52 57 -157 119 -405 l83 -334 -26 -22 c-14 -13 -55 -33 -91
-44 -36 -12 -77 -28 -91 -35 l-26 -13 -12 197 c-6 108 -16 258 -21 332 -5 74
-12 207 -15 295 l-7 160 26 -30 c14 -16 41 -62 61 -101z m-1255 78 c0 -4 -28
-35 -62 -69 -85 -84 -138 -104 -226 -87 -28 6 -18 13 121 84 160 82 167 85
167 72z m870 -517 l0 -515 -120 0 c-94 0 -120 3 -120 14 0 34 149 868 165 924
15 51 44 92 65 92 7 0 10 -178 10 -515z m-115 438 c-13 -32 -202 -401 -392
-770 -27 -51 -53 -93 -59 -93 -16 0 -176 98 -203 124 l-24 24 24 34 c28 41
186 251 343 458 122 161 133 171 271 239 55 27 57 26 40 -16z m-277 -125 c-17
-25 -409 -548 -424 -566 -1 -2 -19 9 -38 25 -51 40 -49 72 9 126 38 33 45 46
43 70 -2 17 -11 35 -21 41 -15 9 -23 5 -47 -24 -59 -71 -79 -90 -98 -90 -40 0
-30 30 44 124 67 86 79 97 132 116 31 12 116 54 187 94 72 41 147 79 167 85
21 7 40 17 43 22 4 5 11 9 16 9 6 0 0 -15 -13 -32z m246 -75 c-3 -27 -26 -163
-50 -303 -25 -140 -49 -282 -55 -315 -6 -33 -15 -77 -20 -97 -9 -35 -11 -37
-42 -32 -18 4 -73 20 -124 36 l-92 30 61 122 c141 283 314 606 324 606 2 0 1
-21 -2 -47z m798 -242 c54 -90 98 -167 98 -170 -1 -5 -70 -62 -121 -98 -16
-12 -23 10 -83 255 -36 147 -66 271 -66 277 0 15 64 -82 172 -264z m-2282 149
c18 -10 40 -59 40 -91 0 -23 -100 -76 -158 -83 -22 -2 -58 -14 -79 -25 -47
-23 -194 -51 -275 -51 -105 0 -81 19 187 154 205 102 247 116 285 96z m-1990
-506 c222 -24 252 -33 307 -91 27 -28 53 -52 59 -54 6 -2 14 -14 18 -26 5 -16
-1 -29 -24 -53 -37 -37 -40 -91 -10 -150 31 -60 60 -75 114 -60 30 8 50 9 62
2 13 -7 38 -1 98 24 44 19 86 34 92 34 7 0 28 -29 48 -64 20 -37 44 -66 56
-69 32 -8 24 -33 -26 -74 -25 -21 -76 -65 -112 -97 -110 -98 -156 -121 -383
-196 -116 -39 -228 -82 -248 -96 -47 -32 -83 -30 -134 5 -144 98 -286 181
-312 181 -6 0 -50 40 -98 89 -72 73 -87 94 -87 120 0 24 -10 42 -45 75 -25 25
-45 52 -45 61 0 47 -63 123 -187 224 -29 24 -53 47 -53 52 0 5 20 9 43 9 58 0
196 36 219 57 10 9 18 29 18 45 0 33 19 37 45 8 10 -11 26 -20 36 -20 27 0
113 47 127 69 11 20 19 21 150 15 75 -3 198 -12 272 -20z m1330 -824 c551
-792 914 -1305 968 -1367 51 -61 54 -45 -30 -216 -26 -55 -53 -125 -59 -158
-6 -32 -19 -65 -28 -73 -9 -8 -121 -51 -250 -95 -128 -44 -254 -92 -278 -107
-31 -18 -48 -23 -52 -15 -4 6 -35 122 -69 259 -42 167 -81 364 -121 607 -33
198 -83 461 -110 585 -27 124 -64 321 -82 439 -31 208 -31 215 -13 228 35 26
56 11 124 -87z m1002 -2077 c-4 -75 -11 -96 -25 -85 -7 6 -29 13 -50 17 -48 9
-65 37 -43 71 15 22 29 28 86 37 14 3 27 5 30 6 3 0 4 -20 2 -46z m375 -29
c33 -33 17 -45 -45 -37 l-42 6 17 28 c21 36 37 36 70 3z m-787 -76 c0 -36 -35
-84 -71 -97 -19 -7 -49 -19 -67 -27 -46 -20 -61 -18 -68 11 -10 41 0 50 88 85
45 18 87 37 93 42 16 14 25 9 25 -14z m-244 -135 c15 -34 15 -38 -2 -50 -15
-11 -21 -10 -41 9 -27 26 -28 35 -6 60 23 26 32 23 49 -19z m-406 -153 c0 -15
-5 -31 -11 -37 -8 -8 -6 -19 5 -41 25 -48 20 -69 -28 -119 l-43 -47 -26 40
c-14 21 -46 63 -71 92 -25 30 -46 58 -46 62 0 5 10 16 21 24 20 14 25 13 60
-7 44 -25 64 -19 89 29 29 55 32 58 41 43 5 -8 9 -25 9 -39z m873 -192 c2 -7
0 -23 -4 -36 -12 -32 -53 -27 -57 7 -5 35 49 60 61 29z m484 -62 c-2 -28 -16
-107 -31 -176 -26 -117 -35 -139 -145 -355 -65 -126 -140 -270 -167 -320 l-49
-90 -3 42 c-3 42 4 63 88 263 80 189 113 270 134 330 13 36 52 136 86 223 53
134 64 156 77 145 10 -8 13 -26 10 -62z m-261 -223 c-41 -142 -82 -274 -91
-293 l-15 -35 5 60 c3 33 12 139 20 235 19 224 20 228 76 257 24 13 51 31 59
39 8 8 16 11 18 6 1 -5 -31 -126 -72 -269z m606 186 l31 -26 -112 -197 c-178
-311 -264 -453 -257 -426 4 14 24 93 45 177 22 83 48 175 59 205 11 30 23 76
27 103 8 60 53 215 67 232 8 10 21 7 60 -15 27 -15 63 -39 80 -53z m-1040 4
c2 -10 -1 -40 -7 -68 l-12 -50 -17 57 c-10 32 -15 62 -11 68 10 16 42 11 47
-7z m128 -68 c8 -9 11 -30 7 -54 -6 -46 -95 -251 -109 -251 -6 0 -8 10 -5 23
29 113 39 149 52 180 8 20 15 52 15 70 0 48 16 61 40 32z m1041 -52 c36 -38
71 -76 78 -85 10 -14 -11 -44 -155 -220 -306 -371 -443 -534 -458 -547 -14
-12 -16 -10 -16 8 0 57 64 206 158 366 54 94 147 254 206 358 59 103 111 187
115 187 3 0 36 -30 72 -67z m-855 -248 c-21 -244 -22 -252 -54 -310 -17 -33
-32 -70 -32 -82 0 -12 -4 -24 -9 -27 -8 -5 -14 53 -27 264 l-6 105 49 100 c27
55 59 124 72 153 12 30 24 52 25 50 2 -1 -6 -115 -18 -253z m-548 173 c45 -67
57 -95 96 -223 l37 -119 -16 -61 c-17 -68 -39 -132 -47 -140 -3 -3 -13 25 -22
62 -10 37 -44 167 -77 287 -62 227 -63 235 -17 236 9 0 30 -19 46 -42z m-61
-190 c54 -201 69 -267 60 -258 -8 8 -98 147 -139 215 -25 42 -37 76 -40 114
-5 48 -3 57 24 87 17 19 33 34 37 34 3 0 30 -87 58 -192z m1632 29 c23 -46 41
-89 41 -97 0 -8 -51 -49 -112 -90 -61 -41 -199 -137 -307 -212 -108 -76 -200
-138 -204 -138 -9 0 156 206 382 477 100 121 138 160 147 152 7 -6 31 -47 53
-92z m-1893 -122 l7 -60 -25 23 c-14 12 -31 34 -39 48 -12 24 -11 27 11 44 14
11 28 16 32 12 4 -4 10 -34 14 -67z m1139 28 c-12 -31 -45 -162 -80 -318 -18
-82 -43 -176 -55 -207 -27 -73 -85 -128 -135 -128 -19 0 -35 4 -35 10 0 56 38
147 163 387 127 244 164 311 142 256z m-860 -193 c29 -47 62 -105 75 -129 21
-42 21 -45 5 -88 l-17 -45 -40 39 c-66 63 -83 92 -69 115 14 23 5 82 -15 99
-15 12 -38 84 -49 154 l-6 40 32 -50 c17 -27 55 -88 84 -135z m-256 -12 c13
-53 15 -81 8 -101 -8 -23 -5 -37 16 -75 21 -40 61 -191 52 -200 -3 -3 -348
329 -353 340 -3 7 54 89 120 170 l38 46 51 -53 c44 -46 53 -64 68 -127z m705
32 c3 -63 9 -141 13 -172 5 -49 3 -58 -10 -58 -21 0 -28 15 -61 135 l-28 100
33 74 c40 88 43 83 53 -79z m1244 68 c32 -102 46 -178 36 -187 -9 -8 -794
-361 -845 -380 -24 -9 -26 -8 -21 17 8 45 90 119 257 232 88 59 245 169 349
244 105 75 193 136 197 136 5 0 17 -28 27 -62z m-2058 -346 c180 -173 180
-174 179 -216 -1 -23 3 -52 10 -64 l12 -23 -38 16 c-49 21 -72 34 -290 173
l-182 116 22 37 c43 73 91 139 98 137 5 -2 89 -81 189 -176z m2115 86 c3 -24
5 -85 3 -137 l-3 -94 -376 -147 -376 -146 -32 27 c-26 21 -31 31 -26 52 8 30
-16 72 -45 80 -11 3 -20 9 -20 14 0 4 51 30 113 56 61 27 254 113 427 192 173
78 318 143 322 144 4 1 10 -18 13 -41z m-1752 -71 l45 -53 -20 -47 c-25 -58
-48 -62 -48 -8 0 21 -7 58 -15 81 -14 40 -20 80 -11 80 2 0 24 -24 49 -53z
m284 1 c25 -57 46 -167 37 -189 -10 -21 -12 -20 -31 22 -23 47 -42 189 -26
189 6 0 14 -10 20 -22z m-797 -154 c91 -58 167 -108 170 -111 15 -17 -383 60
-403 77 -10 8 47 140 60 140 5 0 83 -48 173 -106z m2265 -71 c-2 -16 -9 -71
-16 -124 -6 -53 -14 -101 -18 -106 -3 -6 -121 -32 -261 -59 -200 -38 -277 -49
-355 -49 l-100 0 -3 37 -3 36 148 57 c81 32 247 97 368 145 121 49 226 88 232
89 8 1 11 -9 8 -26z m-2254 -52 c231 -49 319 -74 319 -92 0 -20 42 -49 70 -49
23 0 30 -4 30 -20 0 -19 -7 -20 -133 -20 -74 0 -249 3 -389 7 l-256 6 25 66
c50 133 65 162 82 157 9 -3 122 -27 252 -55z m1355 -202 c10 -17 -21 -41 -50
-37 l-27 3 21 23 c23 24 45 28 56 11z m-926 -13 c15 -2 29 -12 36 -27 6 -13
27 -56 48 -96 l36 -71 -32 -12 c-34 -13 -228 -22 -695 -35 l-262 -8 15 64 c8
35 24 94 35 132 l20 67 387 -6 c213 -3 398 -7 412 -8z m1778 -43 c-9 -33 -38
-113 -43 -121 -3 -4 -336 47 -370 57 -40 12 -34 14 190 60 246 51 236 51 223
4z m-292 -118 c125 -20 230 -37 231 -39 4 -4 -52 -168 -66 -194 -11 -20 -14
-19 -153 34 -427 164 -429 165 -426 193 6 52 108 53 414 6z m-518 -30 c9 -8
-23 -78 -40 -89 -14 -8 -23 -5 -48 19 -31 30 -40 69 -17 79 13 6 97 -1 105 -9z
m382 -144 c146 -56 268 -106 273 -110 8 -8 -98 -231 -110 -231 -8 0 -525 239
-533 247 -3 2 10 31 27 62 18 32 35 77 39 101 5 32 11 41 23 37 9 -3 135 -50
281 -106z m-1381 54 c-19 -14 -57 -37 -86 -51 -53 -26 -770 -210 -780 -200 -8
8 17 230 27 240 8 8 518 31 764 35 l110 1 -35 -25z m187 -95 c28 -63 37 -71
52 -44 11 20 32 10 32 -14 -1 -31 -52 -86 -295 -317 -132 -125 -328 -313 -436
-416 l-197 -189 -35 52 c-19 29 -46 76 -60 104 l-26 51 57 55 c191 185 860
778 878 778 1 0 15 -27 30 -60z m-146 21 c0 -5 -86 -88 -192 -183 -556 -501
-631 -568 -638 -568 -10 0 -39 100 -54 186 l-13 75 36 23 c77 49 677 414 701
426 28 15 128 49 148 49 6 1 12 -3 12 -8z m590 -60 c0 -5 -7 -14 -15 -21 -13
-10 -15 -9 -15 9 0 12 6 21 15 21 8 0 15 -4 15 -9z m107 -13 c11 -13 28 -38
38 -56 15 -32 15 -35 -1 -53 -9 -10 -22 -19 -28 -19 -6 0 -37 -11 -70 -25
l-58 -24 6 32 c15 73 28 108 52 137 31 36 35 36 61 8z m-1018 -23 c-19 -15
-97 -65 -174 -112 -77 -47 -198 -122 -269 -165 -70 -44 -131 -76 -134 -73 -4
3 -6 56 -7 118 l0 111 145 38 c159 41 437 106 459 107 8 1 -1 -10 -20 -24z
m711 -14 c0 -5 -7 -11 -15 -15 -15 -5 -20 5 -8 17 9 10 23 9 23 -2z m907 -153
l192 -90 -37 -59 c-20 -33 -46 -71 -58 -86 l-20 -26 -199 149 c-124 93 -210
165 -228 191 -29 41 -30 43 -13 62 21 23 1 30 363 -141z m-877 90 c0 -22 -13
-23 -30 -3 -10 12 -10 18 0 30 11 13 15 13 21 3 5 -7 9 -21 9 -30z m531 -85
c20 -21 95 -125 168 -231 l132 -193 -30 -37 c-40 -51 -129 -137 -135 -131 -3
3 -66 142 -140 309 l-134 305 25 27 c26 27 26 27 52 8 14 -10 42 -36 62 -57z
m-814 -54 c-19 -47 -45 -104 -58 -127 -14 -22 -148 -203 -299 -401 l-274 -359
-31 21 c-16 12 -58 51 -93 86 l-63 64 48 49 c110 114 795 760 800 755 1 -2
-12 -42 -30 -88z m230 54 c63 -33 73 -42 73 -65 0 -14 -33 -194 -74 -400 -41
-205 -84 -426 -96 -490 l-22 -117 -51 -10 c-29 -6 -88 -11 -132 -12 -73 -2
-80 0 -77 17 2 10 60 244 128 519 109 439 154 595 173 595 2 0 38 -17 78 -37z
m562 -317 c73 -164 130 -303 129 -308 -4 -10 -169 -148 -178 -148 -5 0 -280
698 -280 712 0 3 22 8 49 12 27 3 68 17 92 30 30 16 46 20 51 12 3 -6 65 -146
137 -310z m-310 119 c93 -224 232 -598 223 -604 -85 -61 -165 -112 -169 -108
-8 9 -112 476 -123 557 -11 75 -4 280 9 280 4 0 31 -56 60 -125z m-540 -400
l-123 -495 -36 0 c-19 0 -55 5 -80 10 -97 22 -90 18 -80 46 13 33 261 636 303
734 35 83 129 230 135 212 2 -7 -52 -235 -119 -507z m1134 410 c75 -55 137
-104 137 -109 0 -4 -18 -30 -39 -57 l-39 -49 -99 147 c-118 175 -119 177 -106
172 6 -2 71 -49 146 -104z m-713 -109 c10 -59 10 -143 1 -388 -7 -172 -15
-316 -19 -319 -9 -9 -169 -59 -188 -59 -7 0 -14 6 -14 14 0 19 169 868 176
886 9 21 29 -41 44 -134z m-523 -142 c-19 -49 -83 -207 -143 -352 -98 -238
-110 -261 -129 -256 -27 8 -158 73 -169 84 -5 5 64 103 155 222 223 291 310
400 315 395 3 -2 -10 -44 -29 -93z m606 -221 c46 -192 62 -271 56 -277 -3 -3
-31 -17 -62 -31 l-57 -25 0 98 c0 154 12 382 21 382 4 0 23 -66 42 -147z"/>
</g>
</svg>
